%TF.GenerationSoftware,KiCad,Pcbnew,(5.0.0-rc2-198-gb8bbb15aa)*%
%TF.CreationDate,2018-10-15T22:21:03+08:00*%
%TF.ProjectId,stmbl_4.0,73746D626C5F342E302E6B696361645F,rev?*%
%TF.SameCoordinates,Original*%
%TF.FileFunction,Profile,NP*%
%FSLAX46Y46*%
G04 Gerber Fmt 4.6, Leading zero omitted, Abs format (unit mm)*
G04 Created by KiCad (PCBNEW (5.0.0-rc2-198-gb8bbb15aa)) date 10/15/18 22:21:03*
%MOMM*%
%LPD*%
G01*
G04 APERTURE LIST*
%ADD10C,0.150000*%
G04 APERTURE END LIST*
D10*
X127500000Y-100500000D02*
X127500000Y-100000000D01*
X135500000Y-100500000D02*
X135500000Y-100000000D01*
X132000000Y-96500000D02*
X131000000Y-96500000D01*
X140500000Y-101500000D02*
X136500000Y-101500000D01*
X126500000Y-101500000D02*
G75*
G03X127500000Y-100500000I0J1000000D01*
G01*
X131000000Y-96500000D02*
G75*
G03X127500000Y-100000000I0J-3500000D01*
G01*
X135500000Y-100000000D02*
G75*
G03X132000000Y-96500000I-3500000J0D01*
G01*
X135500000Y-100500000D02*
G75*
G03X136500000Y-101500000I1000000J0D01*
G01*
X110000000Y-101500000D02*
X111000000Y-101500000D01*
X171500000Y-104500000D02*
G75*
G03X170500000Y-105500000I0J-1000000D01*
G01*
X167500000Y-105500000D02*
G75*
G03X166500000Y-104500000I-1000000J0D01*
G01*
X171500000Y-104500000D02*
X181000000Y-104500000D01*
X170500000Y-111000000D02*
X170500000Y-105500000D01*
X167500000Y-111000000D02*
X167500000Y-105500000D01*
X167500000Y-111000000D02*
G75*
G03X170500000Y-111000000I1500000J0D01*
G01*
X103750000Y-92500000D02*
G75*
G03X102250000Y-91000000I-1500000J0D01*
G01*
X109000000Y-98000000D02*
G75*
G03X107500000Y-96500000I-1500000J0D01*
G01*
X111000000Y-104500000D02*
G75*
G03X111000000Y-101500000I0J1500000D01*
G01*
X111000000Y-104500000D02*
G75*
G03X110000000Y-105500000I0J-1000000D01*
G01*
X109000000Y-100500000D02*
G75*
G03X110000000Y-101500000I1000000J0D01*
G01*
X103750000Y-95500000D02*
G75*
G03X104750000Y-96500000I1000000J0D01*
G01*
X198000000Y-106000000D02*
G75*
G03X197000000Y-105000000I-1000000J0D01*
G01*
X198000000Y-50750000D02*
G75*
G03X197000000Y-49750000I-1000000J0D01*
G01*
X99000000Y-49750000D02*
G75*
G03X98000000Y-50750000I0J-1000000D01*
G01*
X98000000Y-90000000D02*
G75*
G03X99000000Y-91000000I1000000J0D01*
G01*
X110000000Y-148750000D02*
G75*
G03X111000000Y-149750000I1000000J0D01*
G01*
X197000000Y-149750000D02*
G75*
G03X198000000Y-148750000I0J1000000D01*
G01*
X197000000Y-102000000D02*
G75*
G03X198000000Y-101000000I0J1000000D01*
G01*
X126500000Y-101500000D02*
X115500000Y-101500000D01*
X115500000Y-104500000D02*
X140500000Y-104500000D01*
X115500000Y-101500000D02*
G75*
G03X115500000Y-104500000I0J-1500000D01*
G01*
X185500000Y-105000000D02*
X197000000Y-105000000D01*
X185500000Y-102000000D02*
X197000000Y-102000000D01*
X181000000Y-104500000D02*
G75*
G03X181000000Y-101500000I0J1500000D01*
G01*
X185500000Y-102000000D02*
G75*
G03X185500000Y-105000000I0J-1500000D01*
G01*
X147000000Y-104500000D02*
X166500000Y-104500000D01*
X147000000Y-101500000D02*
X181000000Y-101500000D01*
X140500000Y-104500000D02*
G75*
G03X140500000Y-101500000I0J1500000D01*
G01*
X147000000Y-101500000D02*
G75*
G03X147000000Y-104500000I0J-1500000D01*
G01*
X107500000Y-96500000D02*
X104750000Y-96500000D01*
X198000000Y-148750000D02*
X198000000Y-106000000D01*
X109000000Y-98000000D02*
X109000000Y-100500000D01*
X103750000Y-92500000D02*
X103750000Y-95500000D01*
X99000000Y-91000000D02*
X102250000Y-91000000D01*
X98000000Y-50750000D02*
X98000000Y-90000000D01*
X197000000Y-49750000D02*
X99000000Y-49750000D01*
X198000000Y-101000000D02*
X198000000Y-50750000D01*
X111000000Y-149750000D02*
X197000000Y-149750000D01*
X110000000Y-105500000D02*
X110000000Y-148750000D01*
M02*
